<?xml version="1.0" standalone="no"?><!DOCTYPE svg PUBLIC "-//W3C//DTD SVG 1.1//EN" "http://www.w3.org/Graphics/SVG/1.1/DTD/svg11.dtd"><svg t="1687932694819" class="icon" viewBox="0 0 1024 1024" version="1.1" xmlns="http://www.w3.org/2000/svg" p-id="12486" xmlns:xlink="http://www.w3.org/1999/xlink" width="200" height="200"><path d="M549.302857 84.297143c0-20.150857-17.152-37.302857-37.302857-37.302857s-37.284571 17.152-37.284571 37.302857V174.262857c0 20.150857 17.152 37.302857 37.302857 37.302857 20.114286 0 37.266286-17.152 37.266285-37.302857z m174.409143 163.273143c-14.134857 14.573714-14.134857 38.582857 0 52.717714 14.573714 14.573714 38.144 14.994286 53.138286 0l63.872-63.853714a37.76 37.76 0 0 0 0-53.156572c-14.153143-14.134857-38.144-14.134857-52.717715 0z m-476.562286 52.717714c14.134857 14.573714 38.144 14.573714 52.699429 0 14.153143-13.714286 14.153143-38.582857 0.438857-52.717714l-63.853714-64.292572c-13.714286-13.714286-38.144-14.134857-52.717715 0-14.153143 14.153143-14.153143 38.582857-0.438857 52.717715zM512 293.430857c-119.570286 0-218.569143 98.998857-218.569143 218.569143S392.411429 731.008 512 731.008c119.149714 0 218.148571-99.437714 218.148571-219.008 0-119.588571-98.998857-218.569143-218.148571-218.569143z m426.422857 255.853714c20.150857 0 37.302857-17.133714 37.302857-37.284571s-17.152-37.302857-37.302857-37.302857h-89.563428c-20.150857 0-37.302857 17.152-37.302858 37.302857s17.152 37.284571 37.302858 37.284571zM85.577143 474.715429c-20.150857 0-37.302857 17.133714-37.302857 37.284571s17.152 37.284571 37.302857 37.284571h89.563428c20.150857 0 37.302857-17.133714 37.302858-37.284571s-17.152-37.302857-37.302858-37.302857zM776.411429 724.114286a38.034286 38.034286 0 0 0-52.717715 0c-14.134857 14.153143-14.134857 38.162286 0 52.717714L788.004571 841.142857c14.573714 14.134857 38.582857 13.714286 52.717715-0.420571 14.573714-14.153143 14.573714-38.144 0-52.717715z m-593.152 63.451428c-14.555429 14.134857-14.555429 38.564571-0.420572 52.699429 14.153143 14.153143 38.582857 14.573714 53.138286 0.438857l63.853714-63.872c14.153143-14.134857 14.153143-38.144 0.438857-52.699429-14.153143-14.153143-38.582857-14.153143-53.138285 0z m366.006857 62.134857c0-20.150857-17.133714-37.302857-37.284572-37.302857s-37.284571 17.152-37.284571 37.302857v90.002286c0 20.132571 17.152 37.284571 37.302857 37.284572 20.114286 0 37.266286-17.152 37.266286-37.302858z" p-id="12487" fill="#ffd50b"></path></svg>